<svg width="1466" height="838" viewBox="0 0 1466 838" fill="none" xmlns="http://www.w3.org/2000/svg">
<g clip-path="url(#clip0_207_10)">
<path d="M756.729 559H722.48V258.355H759.395V365.611C774.98 346.061 794.873 336.285 819.072 336.285C832.471 336.285 845.117 339.02 857.012 344.488C869.043 349.82 878.887 357.408 886.543 367.252C894.336 376.959 900.42 388.717 904.795 402.525C909.17 416.334 911.357 431.1 911.357 446.822C911.357 484.146 902.129 512.994 883.672 533.365C865.215 553.736 843.066 563.922 817.227 563.922C791.523 563.922 771.357 553.189 756.729 531.725V559ZM756.318 448.463C756.318 474.576 759.873 493.443 766.982 505.064C778.604 524.068 794.326 533.57 814.15 533.57C830.283 533.57 844.229 526.598 855.986 512.652C867.744 498.57 873.623 477.652 873.623 449.898C873.623 421.461 867.949 400.475 856.602 386.939C845.391 373.404 831.787 366.637 815.791 366.637C799.658 366.637 785.713 373.678 773.955 387.76C762.197 401.705 756.318 421.939 756.318 448.463ZM955.654 559V258.355H992.568V559H955.654ZM1036.25 450.104C1036.25 409.771 1047.46 379.898 1069.88 360.484C1088.61 344.352 1111.45 336.285 1138.38 336.285C1168.32 336.285 1192.79 346.129 1211.8 365.816C1230.8 385.367 1240.3 412.438 1240.3 447.027C1240.3 475.055 1236.06 497.135 1227.59 513.268C1219.25 529.264 1207.01 541.705 1190.88 550.592C1174.88 559.479 1157.38 563.922 1138.38 563.922C1107.89 563.922 1083.21 554.146 1064.35 534.596C1045.62 515.045 1036.25 486.881 1036.25 450.104ZM1074.19 450.104C1074.19 477.994 1080.27 498.912 1092.44 512.857C1104.61 526.666 1119.92 533.57 1138.38 533.57C1156.7 533.57 1171.94 526.598 1184.11 512.652C1196.28 498.707 1202.36 477.447 1202.36 448.873C1202.36 421.939 1196.21 401.568 1183.91 387.76C1171.74 373.814 1156.56 366.842 1138.38 366.842C1119.92 366.842 1104.61 373.746 1092.44 387.555C1080.27 401.363 1074.19 422.213 1074.19 450.104ZM1425.9 479.225L1462.2 483.941C1458.23 508.961 1448.05 528.58 1431.64 542.799C1415.37 556.881 1395.34 563.922 1371.55 563.922C1341.75 563.922 1317.75 554.215 1299.57 534.801C1281.52 515.25 1272.5 487.291 1272.5 450.924C1272.5 427.408 1276.4 406.832 1284.19 389.195C1291.98 371.559 1303.81 358.365 1319.67 349.615C1335.66 340.729 1353.03 336.285 1371.76 336.285C1395.41 336.285 1414.76 342.301 1429.79 354.332C1444.83 366.227 1454.47 383.18 1458.71 405.191L1422.82 410.729C1419.4 396.1 1413.32 385.094 1404.57 377.711C1395.96 370.328 1385.5 366.637 1373.19 366.637C1354.6 366.637 1339.49 373.336 1327.87 386.734C1316.25 399.996 1310.44 421.051 1310.44 449.898C1310.44 479.156 1316.04 500.416 1327.26 513.678C1338.47 526.939 1353.1 533.57 1371.14 533.57C1385.63 533.57 1397.73 529.127 1407.44 520.24C1417.15 511.354 1423.3 497.682 1425.9 479.225Z" fill="#EBEBEB"/>
<path d="M546 577.117L275.922 744L2.59691 579.714L0 260.883L272.026 94L544.702 257.636L546 577.117Z" fill="black"/>
<path d="M274 426.5L482.5 298L272.5 172L63 300.5L274 426.5Z" fill="#0084C1"/>
<path d="M483.5 544L482.5 298L274 426.5L275.5 672.5L483.5 544Z" fill="#00D3B9"/>
<path d="M63 300.5L274 426.5L275.5 672.5L65 546L63 300.5Z" fill="#82EDDF"/>
</g>
<defs>
<clipPath id="clip0_207_10">
<rect width="1466" height="838" fill="white"/>
</clipPath>
</defs>
</svg>
