<svg width="240" height="57" viewBox="0 0 240 57" fill="none" xmlns="http://www.w3.org/2000/svg">
<path d="M88.3466 22.2242C86.8462 22.2242 85.469 22.5172 84.2541 23.0957C83.2147 23.5902 82.3245 24.2714 81.6004 25.1205C80.9174 24.2751 80.0777 23.5958 79.0998 23.1013C77.9502 22.519 76.6308 22.2242 75.1808 22.2242C73.1019 22.2242 71.3701 22.8773 70.0153 24.1687V22.6291H65.9844V44.2169H70.0153V31.0157C70.0153 29.45 70.4426 28.1847 71.288 27.2554C72.1315 26.3241 73.2792 25.8725 74.7964 25.8725C76.3136 25.8725 77.4445 26.326 78.2955 27.2572C79.1446 28.1866 79.5757 29.4518 79.5757 31.0175V44.2188H83.5263V31.0175C83.5263 29.4537 83.9611 28.1884 84.8158 27.2591C85.6743 26.326 86.8276 25.8744 88.3466 25.8744C89.8657 25.8744 90.9854 26.326 91.8233 27.2572C92.6612 28.1884 93.0867 29.4537 93.0867 31.0194V44.2206H97.1195V31.0194C97.1195 28.4441 96.304 26.3129 94.6972 24.6838C93.0886 23.0546 90.9518 22.2279 88.3485 22.2279L88.3466 22.2242Z" fill="#181016"/>
<path d="M111.386 22.2242C108.139 22.2242 105.431 23.2842 103.339 25.3761C101.247 27.4681 100.188 30.174 100.188 33.423C100.188 36.672 101.244 39.3947 103.33 41.4793C105.416 43.5638 108.126 44.6219 111.386 44.6219C114.647 44.6219 117.358 43.5638 119.443 41.4793C121.527 39.3947 122.585 36.6832 122.585 33.423C122.585 30.1628 121.525 27.4681 119.433 25.3761C117.341 23.2842 114.633 22.2242 111.386 22.2242ZM111.386 40.9325C109.255 40.9325 107.492 40.2327 106.148 38.8498C104.801 37.4651 104.118 35.6382 104.118 33.4212C104.118 31.2042 104.801 29.3697 106.148 27.972C107.492 26.5779 109.253 25.8706 111.384 25.8706C113.516 25.8706 115.227 26.5537 116.569 27.9608C117.897 29.3529 118.571 31.1892 118.571 33.423C118.571 35.6568 117.897 37.4838 116.571 38.8629C115.229 40.2569 113.532 40.9343 111.384 40.9343L111.386 40.9325Z" fill="#181016"/>
<path d="M135.42 22.2242C133.182 22.2242 131.342 22.924 129.931 24.3068V22.6291H125.9V44.2169H129.931V31.359C129.931 29.7131 130.394 28.3694 131.305 27.3654C132.217 26.3596 133.443 25.8706 135.056 25.8706C136.668 25.8706 137.849 26.3596 138.755 27.3636C139.66 28.3676 140.119 29.7112 140.119 31.359V44.2169H144.11V31.359C144.11 28.6811 143.308 26.466 141.727 24.7789C140.137 23.0826 138.016 22.2223 135.42 22.2223V22.2242Z" fill="#181016"/>
<path d="M152.919 15.59H148.969V22.6291H146.197V26.2775H148.969V37.4483C148.969 41.9402 151.266 44.2169 155.799 44.2169H159.636V40.5294H155.961C153.886 40.5294 152.921 39.5496 152.921 37.4483V26.2775H159.636V22.6291H152.921V15.59H152.919Z" fill="#181016"/>
<path d="M173.047 22.2242C169.799 22.2242 167.092 23.2842 165.002 25.3761C162.91 27.4681 161.85 30.174 161.85 33.423C161.85 36.672 162.906 39.3947 164.992 41.4793C167.077 43.5638 169.788 44.6219 173.048 44.6219C175.217 44.6219 177.195 44.1311 178.927 43.1607C180.672 42.1828 181.965 40.8205 182.769 39.113L183.064 38.4878H178.641L178.509 38.6539C177.249 40.2438 175.463 41.0164 173.047 41.0164C171.091 41.0164 169.441 40.4211 168.142 39.2492C166.952 38.1743 166.207 36.7523 165.923 35.0167H184.119L184.161 34.6267C184.217 34.121 184.245 33.7197 184.245 33.4249C184.245 30.1778 183.185 27.47 181.094 25.378C179.002 23.286 176.296 22.226 173.047 22.226V22.2242ZM168.256 27.5054C169.542 26.395 171.154 25.8315 173.047 25.8315C174.939 25.8315 176.534 26.3932 177.794 27.5017C178.942 28.5113 179.692 29.8493 180.03 31.4878H165.987C166.327 29.8512 167.09 28.515 168.258 27.5054H168.256Z" fill="#181016"/>
<path d="M191.408 22.6291H187.375V44.2169H191.408V29.3249L198.042 26.5555V22.3977L191.408 25.2903V22.6291Z" fill="#181016"/>
<path d="M218.487 25.0607C217.724 24.2956 216.835 23.6704 215.837 23.1964C214.477 22.5507 212.95 22.2242 211.3 22.2242C208.053 22.2242 205.345 23.2842 203.254 25.3761C201.162 27.4681 200.102 30.174 200.102 33.423C200.102 36.672 201.158 39.3947 203.244 41.4793C205.329 43.5638 208.04 44.6219 211.3 44.6219C214.247 44.6219 216.66 43.6832 218.487 41.8301V44.2169H222.499V22.6291H218.487V25.0607ZM211.3 40.9325C209.169 40.9325 207.406 40.2327 206.062 38.8498C204.715 37.4651 204.032 35.6382 204.032 33.4212C204.032 31.2042 204.715 29.3697 206.062 27.972C207.406 26.5779 209.167 25.8706 211.299 25.8706C213.43 25.8706 215.141 26.5537 216.483 27.9608C217.811 29.3529 218.485 31.1892 218.485 33.423C218.485 35.6568 217.811 37.4838 216.485 38.8629C215.143 40.2569 213.447 40.9343 211.299 40.9343L211.3 40.9325Z" fill="#181016"/>
<path d="M231.238 22.6291H227.207V44.2169H231.238V22.6291Z" fill="#181016"/>
<path d="M231.316 15.59H227.123V19.9045H231.316V15.59Z" fill="#181016"/>
<path d="M239.974 15.59H235.943V44.2169H239.974V15.59Z" fill="#181016"/>
<path d="M38.2956 16.9149H11.1503L0 28.1996L27.5502 56.1081L49.4683 33.9063L49.5541 33.8205V25.5683L52.2694 22.8176V14.5654L54.9847 11.8147V0L38.2881 16.9131H38.2956V16.9149ZM52.5027 6.0949V10.7846L19.4044 44.2953L17.0941 41.9551L52.5027 6.0949ZM49.7874 17.0978V21.78L23.482 48.4195L21.1716 46.0793L49.7874 17.0997V17.0978ZM25.2473 50.2073L47.0721 28.1007V32.7829L27.5595 52.5493L25.2492 50.2092L25.2473 50.2073Z" fill="#F50031"/>
</svg>
